HIERARCHY
ROOT Hips
{
	OFFSET -3.958830 18.904000 13.208200
	CHANNELS 6 Xposition Yposition Zposition Zrotation Yrotation Xrotation 
	JOINT LHipJoint
	{
		OFFSET 0.000000 0.000000 0.000000
		CHANNELS 3 Zrotation Yrotation Xrotation
		JOINT LeftUpLeg
		{
			OFFSET 1.800000 -1.400000 0.085000
			CHANNELS 3 Zrotation Yrotation Xrotation
			JOINT LeftLeg
			{
				OFFSET 2.215000 -6.000000 0.000000
				CHANNELS 3 Zrotation Yrotation Xrotation
				JOINT LeftFoot
				{
					OFFSET 2.500000 -6.900000 0.000000
					CHANNELS 3 Zrotation Yrotation Xrotation
					JOINT LeftToeBase
					{
						OFFSET 0.200000 -0.500000 1.950000
						CHANNELS 3 Zrotation Yrotation Xrotation
						End Site
						{
							OFFSET 0.000000 0.000000 0.000000
						}
					}
				}
			}
		}
	}
	JOINT RHipJoint
	{
		OFFSET 0.000000 0.000000 0.000000
		CHANNELS 3 Zrotation Yrotation Xrotation
		JOINT RightUpLeg
		{
			OFFSET -1.800000 -1.400000 0.085000
			CHANNELS 3 Zrotation Yrotation Xrotation
			JOINT RightLeg
			{
				OFFSET -2.215000 -6.000000 0.000000
				CHANNELS 3 Zrotation Yrotation Xrotation
				JOINT RightFoot
				{
					OFFSET -2.500000 -6.900000 0.000000
					CHANNELS 3 Zrotation Yrotation Xrotation
					JOINT RightToeBase
					{
						OFFSET -0.200000 -0.500000 1.950000
						CHANNELS 3 Zrotation Yrotation Xrotation
						End Site
						{
							OFFSET 0.000000 0.000000 0.000000
						}
					}
				}
			}
		}
	}
	JOINT LowerBack
	{
		OFFSET 0.000000 0.000000 0.000000
		CHANNELS 3 Zrotation Yrotation Xrotation
		JOINT Spine
		{
			OFFSET -0.087000 1.940000 -0.288900
			CHANNELS 3 Zrotation Yrotation Xrotation
			JOINT Spine1
			{
				OFFSET 0.000000 1.950000 0.060000
				CHANNELS 3 Zrotation Yrotation Xrotation
				JOINT Neck
				{
					OFFSET 0.000000 0.000000 0.000000
					CHANNELS 3 Zrotation Yrotation Xrotation
					JOINT Neck1
					{
						OFFSET 0.000000 1.600000 0.340000
						CHANNELS 3 Zrotation Yrotation Xrotation
						JOINT Head
						{
							OFFSET 0.000000 1.667000 -0.240000
							CHANNELS 3 Zrotation Yrotation Xrotation
							End Site
							{
								OFFSET 0.000000 0.000000 0.000000
							}
						}
					}
				}
				JOINT LeftShoulder
				{
					OFFSET 0.000000 0.000000 0.000000
					CHANNELS 3 Zrotation Yrotation Xrotation
					JOINT LeftArm
					{
						OFFSET 2.700000 1.550000 -0.730000
						CHANNELS 3 Zrotation Yrotation Xrotation
						JOINT LeftForeArm
						{
							OFFSET 5.450000 0.000000 0.000000
							CHANNELS 3 Zrotation Yrotation Xrotation
							JOINT LeftHand
							{
								OFFSET 3.450000 0.000000 0.000000
								CHANNELS 3 Zrotation Yrotation Xrotation
								JOINT LeftHandIndex1
								{
									OFFSET 0.750000 0.000000 0.000000
									CHANNELS 3 Zrotation Yrotation Xrotation
									End Site
									{
										OFFSET 0.000000 0.000000 0.000000
									}
								}
							}
						}
					}
				}
				JOINT RightShoulder
				{
					OFFSET 0.000000 0.000000 0.000000
					CHANNELS 3 Zrotation Yrotation Xrotation
					JOINT RightArm
					{
						OFFSET -2.700000 1.550000 -0.730000
						CHANNELS 3 Zrotation Yrotation Xrotation
						JOINT RightForeArm
						{
							OFFSET -5.450000 0.000000 0.000000
							CHANNELS 3 Zrotation Yrotation Xrotation
							JOINT RightHand
							{
								OFFSET -3.450000 0.000000 0.000000
								CHANNELS 3 Zrotation Yrotation Xrotation
								JOINT RightHandIndex1
								{
									OFFSET -0.750000 0.000000 0.000000
									CHANNELS 3 Zrotation Yrotation Xrotation
									End Site
									{
										OFFSET 0.000000 0.000000 0.000000
									}
								}
							}
						}
					}
				}
			}
		}
	}
}
MOTION
Frames: 8
Frame Time: 0.016667
-0.525370 16.758160 1.069880 -2.945522 -5.398707 4.260045 -15.556878 13.231073 2.727808 -4.374521 -1.561767 -3.197936 -7.983197 7.752469 21.270036 -0.101704 6.353927 2.990026 0.087580 -0.333100 -0.034970 18.241958 -9.025162 3.416399 6.438692 4.988587 -34.616239 18.357479 -10.698236 26.832817 0.026691 -5.353117 2.764287 0.176250 1.246850 0.376970 -3.022130 -4.233505 -6.749786 7.535960 -8.563361 0.938604 -2.459021 -8.678734 9.603780 -0.159287 -0.589210 -5.300438 -2.716076 8.162708 22.068812 -4.742250 8.293980 11.722340 -2.103147 4.251500 -0.973787 -16.051136 -16.448136 2.439447 7.521861 -41.451778 -1.969747 -4.646506 3.564386 -0.340820 1.109000 -0.921460 0.366680 3.057764 -7.954503 3.174433 27.182781 -13.894424 -7.624681 2.291032 29.507406 -0.925843 1.563516 -2.332430 -0.455000 0.221370 0.130820 -0.086110 
-0.522820 16.745500 1.105960 -2.881481 -5.739486 4.480292 -15.557246 13.225574 2.752223 -4.032841 -1.642145 -3.103994 -9.008767 8.085374 21.118978 -0.050102 6.450802 2.946562 0.067070 -0.371340 -0.023740 18.242633 -9.005828 3.416418 6.803732 5.139813 -34.517759 17.592467 -10.541137 27.308997 0.031853 -5.320563 2.763677 0.137650 1.217050 0.393660 -3.020931 -4.262497 -6.785043 7.724202 -8.658998 1.132536 -2.172395 -8.844196 9.333197 -0.161889 -0.651101 -5.464904 -2.807658 7.915594 22.021416 -5.285500 8.567980 12.034530 -1.934663 4.164463 -0.694572 -16.361469 -15.741676 2.372542 5.251254 -39.697094 -1.136304 -4.640339 3.591015 -0.335540 1.097810 -0.908340 0.344040 2.893512 -7.832646 3.158211 27.689836 -13.574368 -7.869498 2.122031 30.263760 -0.867252 1.581862 -2.339265 -0.437510 0.179420 0.136150 -0.096460 
-0.514330 16.739830 1.173960 -2.776181 -6.844795 4.938772 -15.557178 13.200546 2.806408 -3.275456 -1.850910 -3.133764 -11.324156 8.834529 20.961948 0.013182 6.661495 2.826773 0.064760 -0.388580 -0.003190 18.250169 -8.928183 3.449861 7.722969 5.708270 -34.664413 15.468241 -9.981968 28.620518 0.035482 -5.191583 2.782107 0.105030 1.137340 0.385980 -3.029863 -4.342769 -6.874850 8.132318 -8.745583 1.763588 -1.615909 -8.983527 8.748631 -0.302666 -1.210425 -5.847635 -3.713106 8.671851 21.816135 -5.066300 9.228250 11.578910 -1.752423 4.200382 -0.036795 -18.337116 -13.789358 1.997256 2.016986 -36.894185 -0.233157 -4.580481 3.602411 -0.281230 1.032380 -0.868340 0.304210 2.988908 -7.408469 3.067882 28.719537 -13.052642 -8.464027 2.415609 31.895853 -0.642899 1.596629 -2.314169 -0.420670 0.137750 0.147300 -0.124420 
-0.513590 16.759910 1.256550 -2.654741 -8.184696 5.430968 -15.538639 13.151973 2.839640 -2.211023 -2.125073 -3.551517 -13.396399 9.568923 21.142748 0.063580 6.927884 2.732239 0.015280 -0.465940 0.017080 18.269466 -8.893234 3.502075 8.783465 6.334570 -34.472775 13.176547 -9.166008 29.322009 0.059358 -4.958708 2.869642 0.044190 1.112580 0.370770 -3.081413 -4.283656 -6.971261 8.778640 -8.603834 2.532301 -1.413501 -8.878356 7.961677 -0.131254 -1.368293 -6.072030 -3.889712 8.533309 21.713027 -5.748470 9.719510 11.022230 -2.344422 4.161466 0.356139 -20.016471 -11.538052 1.422659 -1.684534 -33.836367 0.644201 -4.569149 3.495855 -0.206190 0.997800 -0.831090 0.270650 3.238764 -7.181659 2.997723 31.562839 -12.517762 -9.550785 2.141635 33.349406 -0.607796 1.614494 -2.205419 -0.449270 0.163190 0.170950 -0.154150 
-0.496620 16.806380 1.339460 -2.200684 -9.966783 5.649000 -15.519641 13.122840 2.897196 -1.537059 -2.368912 -4.251148 -14.896524 10.308997 22.204495 0.184730 7.129803 2.623886 0.003870 -0.483130 0.057360 18.276691 -8.912476 3.540252 9.448641 6.789744 -34.063089 10.325964 -8.104719 29.926325 0.063555 -4.660353 2.967552 -0.025300 1.007000 0.366920 -3.108888 -4.178469 -7.094478 8.881415 -8.101574 3.569022 -1.262210 -8.389347 7.597129 0.331284 -1.344441 -6.551471 -3.803336 8.510383 22.636868 -6.445950 10.845760 10.406030 -3.878181 3.337348 0.827325 -21.521655 -8.993421 0.428230 -5.008144 -30.922155 1.239744 -4.492401 3.425513 -0.131320 0.914000 -0.738550 0.240690 3.811411 -6.119257 3.263847 35.264845 -12.063931 -10.906092 1.420047 34.053433 -0.787798 1.692561 -2.086695 -0.411700 0.121660 0.149740 -0.172360 
-0.479410 16.867050 1.414440 -1.358977 -12.090324 5.635398 -15.520551 13.179058 2.975387 -1.311302 -2.638408 -5.497843 -15.245403 10.906208 24.333121 0.249378 7.292853 2.499242 0.051160 -0.455450 0.166430 18.248138 -8.954237 3.570096 9.840485 7.056361 -33.557506 6.629498 -6.664859 30.227618 0.056029 -4.245809 3.091417 -0.068090 0.843130 0.358310 -3.038756 -4.196760 -7.249513 8.044168 -7.377976 5.291029 -0.572327 -7.634253 6.744791 0.809666 -1.394455 -6.804627 -3.947007 8.682194 24.049858 -7.524730 12.289520 8.381610 -6.178312 2.749635 1.046818 -23.203435 -6.511698 -0.571603 -7.483221 -27.914782 1.402244 -4.382778 3.333843 -0.002960 0.789200 -0.608820 0.202590 5.208516 -5.063301 3.373338 38.040840 -11.505248 -12.092182 0.523140 34.932491 -0.978454 1.755134 -1.962328 -0.373460 0.081790 0.105500 -0.224460 
-0.469050 16.922470 1.489160 -0.654417 -14.084364 5.572724 -15.529323 13.227071 3.078629 -0.457654 -3.415482 -7.639827 -15.356960 12.041582 28.810553 0.399282 7.770942 2.253730 0.107010 -0.395610 0.255920 18.206661 -8.979232 3.603565 10.179952 7.264800 -33.079775 3.084369 -5.298959 30.445055 0.034185 -3.896746 3.194330 -0.097370 0.670010 0.335390 -2.929176 -4.249626 -7.450078 6.986037 -6.554084 7.396012 0.467479 -6.743347 5.956237 1.188538 -1.619218 -7.309682 -4.385211 8.753613 25.278105 -8.335450 13.266210 6.126560 -8.383053 1.808254 1.414505 -25.247580 -4.170117 -1.589569 -9.707068 -24.838012 1.358012 -4.253812 3.270517 0.097750 0.653480 -0.484330 0.169850 6.743348 -3.421442 3.754274 40.233637 -11.541792 -13.275817 0.515716 35.578883 -1.056433 1.825132 -1.855819 -0.316740 0.035200 0.052680 -0.257940 
-0.454380 16.960250 1.563260 -0.625078 -15.917667 5.848008 -15.492522 13.143037 3.174535 1.109085 -4.420428 -10.594027 -15.159938 13.463779 34.315345 0.578645 8.563165 1.954177 0.119670 -0.391090 0.299530 18.226041 -8.988650 3.669213 10.409126 7.708374 -33.119623 0.506627 -4.430421 31.228345 -0.003711 -3.802012 3.222913 -0.130780 0.607870 0.332630 -2.997373 -4.089704 -7.632191 7.625688 -5.974129 9.258405 0.636908 -5.927296 4.923520 1.476574 -1.880255 -7.498456 -4.765165 8.736683 25.773301 -8.968440 13.718210 4.747610 -10.140473 1.442206 1.559599 -27.467714 -2.266577 -2.282594 -12.491266 -21.600516 1.265548 -4.210710 3.199879 0.160840 0.590870 -0.415070 0.162120 7.919873 -2.503990 3.754483 42.387920 -10.677615 -13.985368 0.456194 35.756629 -1.160034 1.875462 -1.762917 -0.297750 0.034610 0.030400 -0.267660 
